<svg width="1469" height="620" viewBox="0 0 1469 620" fill="none" xmlns="http://www.w3.org/2000/svg">
<path opacity="0.0322581" d="M980.785 7.45378C980.785 7.45378 1027.23 266.68 874.326 329.12C702.613 399.241 543.39 183.988 417.105 237.639C292.308 290.657 545.969 426.505 430.365 489.788C317.623 551.504 203.608 401.443 53.1317 462.892" stroke="white" stroke-width="0.797673"/>
<path opacity="0.0645161" d="M999.103 14.9912C999.103 14.9912 1039.42 274.735 885.034 335.186C711.661 403.074 557.528 185.838 429.973 237.845C303.922 289.239 554.371 428.312 437.27 490.086C323.067 550.332 212.601 398.849 60.6698 458.341" stroke="white" stroke-width="0.797673"/>
<path opacity="0.0967742" d="M1017.29 22.6196C1017.29 22.6196 1051.46 282.802 895.649 341.246C720.669 406.88 571.674 187.726 442.887 238.075C315.619 287.83 562.781 430.084 444.217 490.331C328.588 549.087 221.705 396.229 68.3655 453.746" stroke="white" stroke-width="0.797673"/>
<path opacity="0.129032" d="M1035.36 30.338C1035.36 30.338 1063.37 290.879 906.175 347.298C729.642 410.658 585.829 189.654 455.851 238.329C327.405 286.429 571.203 431.822 451.214 490.524C334.195 547.772 230.926 393.585 76.2252 449.109" stroke="white" stroke-width="0.797673"/>
<path opacity="0.16129" d="M1053.29 38.144C1053.29 38.144 1075.14 298.964 916.611 353.342C738.577 414.409 599.991 191.622 468.86 238.607C339.276 285.038 579.637 433.526 458.258 490.663C339.884 546.387 240.262 390.918 84.2463 444.433" stroke="white" stroke-width="0.797673"/>
<path opacity="0.193548" d="M1071.09 46.0361C1071.09 46.0361 1086.77 307.057 926.956 359.376C747.476 418.131 614.158 193.628 481.916 238.91C351.232 283.658 588.083 435.195 465.352 490.752C345.658 544.933 249.713 388.23 92.4302 439.719" stroke="white" stroke-width="0.797673"/>
<path opacity="0.225806" d="M1088.76 54.013C1088.76 54.013 1098.27 315.154 937.209 365.399C756.339 421.824 628.331 195.675 495.016 239.24C363.273 282.291 596.541 436.83 472.495 490.789C351.519 543.413 259.279 385.523 100.778 434.97" stroke="white" stroke-width="0.797673"/>
<path opacity="0.258065" d="M1106.29 62.0724C1106.29 62.0724 1109.62 323.255 947.374 371.409C765.167 425.488 642.507 197.76 508.161 239.595C375.399 280.936 605.013 438.431 479.69 490.776C357.468 541.825 268.963 382.797 109.291 430.187" stroke="white" stroke-width="0.797673"/>
<path opacity="0.290323" d="M1123.68 70.2123C1123.68 70.2123 1120.84 331.356 957.448 377.406C773.961 429.121 656.687 199.885 521.35 239.977C387.609 279.595 613.499 439.998 486.937 490.713C363.507 540.172 278.762 380.053 117.968 425.373" stroke="white" stroke-width="0.797673"/>
<path opacity="0.322581" d="M1140.93 78.4322C1140.93 78.4322 1131.91 339.458 967.434 383.389C782.722 432.725 670.869 202.051 534.583 240.387C399.904 278.271 622.002 441.533 494.239 490.601C369.639 538.456 288.681 377.296 126.814 420.53" stroke="white" stroke-width="0.797673"/>
<path opacity="0.354839" d="M1158.05 86.7287C1158.05 86.7287 1142.85 347.557 977.331 389.357C791.451 436.298 685.054 204.255 547.86 240.824C412.284 276.962 630.522 443.033 501.597 490.441C375.864 536.676 298.717 374.523 135.826 415.66" stroke="white" stroke-width="0.797673"/>
<path opacity="0.387097" d="M1175.01 95.1007C1175.01 95.1007 1153.65 355.652 987.14 395.307C800.148 439.84 699.238 206.499 561.179 241.29C424.747 275.67 639.058 444.501 509.012 490.234C382.184 534.835 308.872 371.739 145.007 410.765" stroke="white" stroke-width="0.797673"/>
<path opacity="0.419355" d="M1191.83 103.547C1191.83 103.547 1164.3 363.741 996.857 401.24C808.811 443.351 713.42 208.783 574.536 241.785C437.29 274.398 647.609 445.936 516.48 489.979C388.597 532.933 319.142 368.945 154.352 405.848" stroke="white" stroke-width="0.797673"/>
<path opacity="0.451613" d="M1208.51 112.064C1208.51 112.064 1174.83 371.823 1006.49 407.153C817.446 446.83 727.603 211.107 587.938 242.31C449.919 273.145 656.183 447.337 524.011 489.679C395.11 530.972 329.534 366.14 163.87 400.91" stroke="white" stroke-width="0.797673"/>
<path opacity="0.483871" d="M1225.03 120.651C1225.03 120.651 1185.21 379.895 1016.03 413.047C826.05 450.276 741.781 213.47 601.377 242.864C462.628 271.912 664.773 448.707 531.599 489.333C401.72 528.954 340.043 363.329 173.555 395.954" stroke="white" stroke-width="0.797673"/>
<path opacity="0.516129" d="M1241.41 129.306C1241.41 129.306 1195.45 387.956 1025.49 418.919C834.626 453.69 755.958 215.872 614.858 243.449C475.421 270.702 673.385 450.044 539.249 488.943C408.432 526.879 350.672 360.511 183.412 390.982" stroke="white" stroke-width="0.797673"/>
<path opacity="0.548387" d="M1257.63 138.026C1257.63 138.026 1205.55 396.004 1034.86 424.768C843.174 457.071 770.13 218.314 628.377 244.066C488.294 269.514 682.018 451.35 546.96 488.509C415.246 524.748 361.42 357.688 193.438 385.996" stroke="white" stroke-width="0.797673"/>
<path opacity="0.580645" d="M1273.7 146.811C1273.7 146.811 1215.52 404.038 1044.15 430.595C851.693 460.419 784.297 220.795 641.933 244.713C501.247 268.35 690.671 452.624 554.734 488.032C422.161 522.563 372.287 354.863 203.634 380.998" stroke="white" stroke-width="0.797673"/>
<path opacity="0.612903" d="M1289.62 155.657C1289.62 155.657 1225.35 412.054 1053.35 436.396C860.187 463.732 798.458 223.316 655.528 245.393C514.282 267.21 699.349 453.866 562.573 487.513C429.182 520.326 383.274 352.035 214.002 375.991" stroke="white" stroke-width="0.797673"/>
<path opacity="0.645161" d="M1305.37 164.563C1305.37 164.563 1235.04 420.053 1062.46 442.172C868.655 467.013 812.612 225.876 669.158 246.106C527.395 266.097 708.048 455.078 570.476 486.953C436.308 518.038 394.38 349.209 224.54 370.977" stroke="white" stroke-width="0.797673"/>
<path opacity="0.677419" d="M1320.97 173.527C1320.97 173.527 1244.6 428.032 1071.49 447.922C877.096 470.258 826.757 228.475 682.823 246.851C540.587 265.01 716.771 456.259 578.443 486.352C443.539 515.7 405.604 346.383 235.248 365.957" stroke="white" stroke-width="0.797673"/>
<path opacity="0.709677" d="M1336.41 182.547C1336.41 182.547 1254.02 435.989 1080.44 453.643C885.515 473.469 840.894 231.113 696.525 247.63C553.858 263.952 725.519 457.41 586.479 485.712C450.88 513.313 416.95 343.561 246.129 360.935" stroke="white" stroke-width="0.797673"/>
<path opacity="0.741935" d="M1351.69 191.621C1351.69 191.621 1263.3 443.922 1089.31 459.336C893.909 476.645 855.02 233.79 710.259 248.443C567.205 262.922 734.292 458.53 594.581 485.033C458.328 510.88 428.413 340.743 257.18 355.912" stroke="white" stroke-width="0.797673"/>
<path opacity="0.774194" d="M1366.81 200.745C1366.81 200.745 1272.45 451.83 1098.09 464.998C902.282 479.786 869.138 236.506 724.029 249.289C580.631 261.922 743.093 459.621 602.754 484.316C465.889 508.4 439.998 337.931 268.405 350.89" stroke="white" stroke-width="0.797673"/>
<path opacity="0.806452" d="M1381.76 209.92C1381.76 209.92 1281.46 459.711 1106.79 470.63C910.631 482.891 883.241 239.26 737.829 250.171C594.131 260.953 751.918 460.683 610.994 483.563C473.558 505.877 451.699 335.128 279.798 345.873" stroke="white" stroke-width="0.797673"/>
<path opacity="0.83871" d="M1396.55 219.142C1396.55 219.142 1290.34 467.564 1115.41 476.229C918.96 485.961 897.332 242.053 751.661 251.088C607.708 260.016 760.771 461.715 619.305 482.774C481.34 503.311 463.52 332.333 291.364 340.861" stroke="white" stroke-width="0.797673"/>
<path opacity="0.870968" d="M1411.18 228.409C1411.18 228.409 1299.09 475.385 1123.95 481.795C927.27 488.994 911.411 244.884 765.525 252.04C621.359 259.111 769.653 462.719 627.688 481.949C489.236 500.703 475.46 329.549 303.101 335.857" stroke="white" stroke-width="0.797673"/>
<path opacity="0.903226" d="M1425.63 237.719C1425.63 237.719 1307.71 483.175 1132.41 487.328C935.56 491.991 925.475 247.753 779.419 253.028C635.084 258.24 778.563 463.694 636.142 481.09C497.246 498.055 487.518 326.778 315.008 330.864" stroke="white" stroke-width="0.797673"/>
<path opacity="0.935484" d="M1439.92 247.07C1439.92 247.07 1316.19 490.931 1140.8 492.825C943.831 494.951 939.524 250.659 793.342 254.052C648.883 257.404 787.503 464.642 644.669 480.198C505.371 495.369 499.694 324.02 327.087 325.883" stroke="white" stroke-width="0.797673"/>
<path opacity="0.967742" d="M1454.04 256.46C1454.04 256.46 1324.54 498.651 1149.11 498.286C952.086 497.875 953.557 253.604 807.294 255.113C662.755 256.604 796.474 465.562 653.271 479.274C513.613 492.646 511.989 321.277 339.337 320.917" stroke="white" stroke-width="0.797673"/>
<path d="M1468 265.586C1468 265.586 1332.77 506.305 1157.36 503.681C960.364 500.734 967.617 256.284 821.328 255.911C676.765 255.542 805.528 466.391 662.011 478.27C522.047 489.855 524.479 318.327 351.848 315.744" stroke="white" stroke-width="0.797673"/>
</svg>
